# xmcd
#
# Track frame offsets:
#	150
#	19372
#	35306
#	59683
#	76286
#	98461
#	115621
#	137463
#	154763
#	174041
#	188136
#	209337
#
# Disc length: 3069 seconds
#
# Revision: 13
# Processed by: cddbd v1.5.2PL0 Copyright (c) Steve Scherf et al.
# Submitted via: Jack! The Knife 20 Magnifico
#
DISCID=8e0bfb0c
DTITLE=Raven - One For All
DYEAR=2000
DGENRE=Metal
TTITLE0=Seven Shades
TTITLE1=Double Talk
TTITLE2=Roll With The Punches
TTITLE3=Get Your Motor Running
TTITLE4=To Be Broken
TTITLE5=Derailed
TTITLE6=The Hunger Inside
TTITLE7=Top Of The World
TTITLE8=In The Line Of Fire
TTITLE9=Kangaroo
TTITLE10=New Religion
TTITLE11=Last Ride
EXTD=Michael Wagener
EXTT0=Gallagher, Hasselvander, Gallagher
EXTT1=Gallagher, Hasselvander, Gallagher
EXTT2=Gallagher, Hasselvander, Gallagher
EXTT3=Gallagher, Hasselvander, Gallagher
EXTT4=Gallagher, Hasselvander, Gallagher
EXTT5=Gallagher, Hasselvander, Gallagher
EXTT6=Gallagher, Hasselvander, Gallagher
EXTT7=Gallagher, Hasselvander, Gallagher
EXTT8=Gallagher, Hasselvander, Gallagher
EXTT9=Gallagher, Hasselvander, Gallagher
EXTT10=Gallagher, Hasselvander, Gallagher
EXTT11=Gallagher, Hasselvander, Gallagher
PLAYORDER=
